Coordinates
version=1
nRows=41
nColumns=38
inDegrees=no

Units are S.I. units (second, meters, Newtons, ...)
If the header above contains a line with 'inDegrees', this indicates whether rotational values are in degrees (yes) or radians (no).

endheader
time	pelvis_tilt	pelvis_list	pelvis_rotation	pelvis_tx	pelvis_ty	pelvis_tz	hip_flexion_r	hip_adduction_r	hip_rotation_r	knee_angle_r	ankle_angle_r	subtalar_angle_r	mtp_angle_r	hip_flexion_l	hip_adduction_l	hip_rotation_l	knee_angle_l	ankle_angle_l	subtalar_angle_l	mtp_angle_l	lumbar_extension	lumbar_bending	lumbar_rotation	arm_flex_r	arm_add_r	arm_rot_r	elbow_flex_r	pro_sup_r	wrist_flex_r	wrist_dev_r	arm_flex_l	arm_add_l	arm_rot_l	elbow_flex_l	pro_sup_l	wrist_flex_l	wrist_dev_l
3.34	-1.73793	1.50961	0.745451	0.849098	0.53636	0.896139	0.325477	-0.0753107	-0.422533	0.158143	0.01967	0	0	-0.205792	-0.177176	-0.105574	0.227014	0.296531	0	0	-0.234496	0.106688	0.197556	0.486504	-0.491923	0.0257096	1.11265	1.29087	0	0	-0.400522	-0.417215	0.397354	0.854712	1.34201	0	0
3.35	-1.86353	1.50318	0.873447	0.848411	0.528435	0.894919	0.327721	-0.0756638	-0.401109	0.1594	0.0226046	0	0	-0.188435	-0.185795	-0.116328	0.253557	0.300264	0	0	-0.223628	0.106124	0.191091	0.464374	-0.48735	0.00895284	1.13898	1.29433	0	0	-0.407739	-0.413359	0.394305	0.856554	1.33917	0	0
3.36	-1.73941	1.493	0.748198	0.847243	0.520797	0.895958	0.333993	-0.0571996	-0.423617	0.184244	0.0231268	0	0	-0.183098	-0.209371	-0.129022	0.276321	0.298109	0	0	-0.227223	0.124063	0.194617	0.469511	-0.485485	-0.0112707	1.14117	1.34679	0	0	-0.404056	-0.402164	0.399183	0.847988	1.3365	0	0
3.37	-1.84714	1.48479	0.857674	0.846317	0.512057	0.895108	0.334767	-0.0545658	-0.401216	0.17936	0.0246768	0	0	-0.164523	-0.219064	-0.132853	0.301053	0.294649	0	0	-0.213565	0.123973	0.182471	0.431243	-0.476881	-0.0197453	1.18231	1.33665	0	0	-0.409166	-0.367258	0.15663	0.856501	0.366452	0	0
3.38	-1.89319	1.48228	0.905739	0.844698	0.50438	0.896629	0.333956	-0.0501239	-0.4036	0.18245	0.0229445	0	0	-0.16553	-0.224972	-0.134356	0.293676	0.269941	0	0	-0.212047	0.122089	0.175942	0.418482	-0.468321	-0.0303131	1.1953	1.33844	0	0	-0.407333	-0.362207	0.159315	0.851406	0.375587	0	0
3.39	-1.77193	1.46247	0.779556	0.843599	0.495544	0.896588	0.341618	-0.0184017	-0.442292	0.196152	0.0260591	0	0	-0.139583	-0.261789	-0.143339	0.354401	0.280642	0	0	-0.203684	0.147448	0.184125	0.398186	-0.473509	-0.0359655	1.21801	1.33028	0	0	-0.414219	-0.382654	0.409611	0.840645	1.27448	0	0
3.4	-1.77929	1.46791	0.785963	0.84164	0.48592	0.898409	0.330104	-0.00609683	-0.433043	0.192088	0.0228516	0	0	-0.165222	-0.261841	-0.114879	0.320106	0.24933	0	0	-0.208817	0.142218	0.175731	0.386877	-0.463946	-0.0373905	1.23553	1.33029	0	0	-0.412744	-0.345769	0.163988	0.841898	0.371926	0	0
3.41	-1.81377	1.45452	0.814951	0.840538	0.477998	0.898028	0.330191	0.00284528	-0.441183	0.18344	0.0287259	0	0	-0.122831	-0.280033	-0.142832	0.394259	0.247449	0	0	-0.196864	0.151968	0.172654	0.373675	-0.459261	-0.0405051	1.25614	1.33011	0	0	-0.418131	-0.337414	0.164957	0.840843	0.36275	0	0
3.42	-1.85469	1.44527	0.852125	0.838848	0.469182	0.897992	0.329274	0.0165231	-0.438594	0.173258	0.0291306	0	0	-0.0971803	-0.294777	-0.153658	0.436561	0.235802	0	0	-0.185786	0.154934	0.169762	0.355109	-0.452104	-0.0480577	1.27757	1.33116	0	0	-0.421628	-0.332618	0.16842	0.839754	0.353933	0	0
3.43	-1.89716	1.43812	0.896311	0.836773	0.460157	0.897934	0.329331	0.0342513	-0.428727	0.164183	0.0259427	0	0	-0.0702526	-0.317139	-0.168883	0.478541	0.225891	0	0	-0.174908	0.154036	0.16479	0.331862	-0.443829	-0.061218	1.3003	1.3389	0	0	-0.422547	-0.333396	0.182237	0.841497	0.344278	0	0
3.44	-1.91414	1.43125	0.903367	0.835499	0.451414	0.898421	0.321518	0.042335	-0.430662	0.152057	0.0324343	0	0	-0.0520548	-0.31892	-0.159951	0.514141	0.197126	0	0	-0.168174	0.158317	0.165143	0.316094	-0.436623	-0.0665777	1.3177	1.34223	0	0	-0.426382	-0.327191	0.185626	0.841491	0.337473	0	0
3.45	-1.93336	1.42859	0.922101	0.833572	0.442385	0.898881	0.316405	0.058872	-0.418973	0.144832	0.0314341	0	0	-0.0315458	-0.335626	-0.163158	0.552678	0.175615	0	0	-0.1628	0.156549	0.160237	0.297925	-0.429338	-0.0720534	1.3335	1.34616	0	0	-0.427262	-0.325887	0.191768	0.843158	0.331306	0	0
3.46	-1.99616	1.43164	0.983815	0.831001	0.434398	0.900882	0.30886	0.0603722	-0.41238	0.13705	0.0315003	0	0	-0.0208118	-0.328451	-0.15233	0.565341	0.130642	0	0	-0.161927	0.144753	0.154533	0.284048	-0.414667	-0.0851266	1.34199	1.3695	0	0	-0.420559	-0.330679	0.211747	0.843368	0.294458	0	0
3.47	-2.23283	1.45823	1.20189	0.828343	0.424195	0.903929	0.289644	0.0326163	-0.388184	0.137695	0.0496943	0	0	-0.025969	-0.274994	-0.107025	0.587357	0.0800297	0	0	-0.172661	0.0974754	0.157137	0.27203	-0.395117	-0.0908956	1.34481	1.37082	0	0	-0.420097	-0.336225	0.214122	0.846761	0.294512	0	0
3.48	-2.33708	1.45583	1.30418	0.829009	0.418255	0.904374	0.289642	0.0229063	-0.384105	0.140433	0.0588254	0	0	0.0206647	-0.274751	-0.122656	0.667539	0.050979	0	0	-0.166185	0.0915959	0.148463	0.262594	-0.396133	-0.0871772	1.35683	1.37082	0	0	-0.417221	-0.326427	0.218436	0.843308	0.29827	0	0
3.49	-2.35036	1.45958	1.3063	0.827226	0.409656	0.905685	0.275928	0.0305255	-0.374502	0.134434	0.0628157	0	0	0.0282631	-0.262077	-0.0884974	0.701539	0.0196459	0	0	-0.168959	0.0880279	0.149831	0.25331	-0.391002	-0.0837912	1.36555	1.37011	0	0	-0.416966	-0.322177	0.221188	0.845649	0.296731	0	0
3.5	-2.31452	1.45957	1.25882	0.825619	0.40111	0.906105	0.264325	0.0444203	-0.365511	0.128487	0.0666571	0	0	0.0489226	-0.265659	-0.0760199	0.760737	-0.00208299	0	0	-0.168328	0.0917934	0.152225	0.243585	-0.38871	-0.0781801	1.37672	1.36651	0	0	-0.418966	-0.317117	0.226866	0.852505	0.298614	0	0
3.51	-2.28447	1.46041	1.2159	0.824056	0.39273	0.906576	0.252224	0.0570822	-0.355208	0.123121	0.0702281	0	0	0.0683346	-0.266213	-0.0626445	0.820792	-0.018045	0	0	-0.168583	0.0944229	0.155523	0.234254	-0.386302	-0.0733094	1.38666	1.3627	0	0	-0.420389	-0.312221	0.232436	0.858623	0.302079	0	0
3.52	-2.26698	1.46229	1.18526	0.822611	0.384618	0.907108	0.240139	0.0672517	-0.344819	0.118962	0.074342	0	0	0.0884117	-0.262888	-0.0480186	0.88411	-0.0230206	0	0	-0.169648	0.0952073	0.158659	0.225416	-0.383157	-0.0697961	1.39508	1.36023	0	0	-0.420737	-0.307231	0.237123	0.86284	0.304985	0	0
3.53	-2.2659	1.46432	1.17154	0.82134	0.37682	0.907583	0.229153	0.0746506	-0.33435	0.115944	0.0787977	0	0	0.111545	-0.255049	-0.0303135	0.953318	-0.0117754	0	0	-0.17013	0.0942533	0.160629	0.217047	-0.379496	-0.0667978	1.40199	1.35903	0	0	-0.420315	-0.302553	0.242877	0.86628	0.307369	0	0
3.54	-2.27031	1.4694	1.16078	0.820029	0.368807	0.908377	0.215787	0.0801811	-0.321773	0.114282	0.0826953	0	0	0.129294	-0.24445	-0.0167188	1.0189	0.00445073	0	0	-0.17309	0.0907713	0.164592	0.209111	-0.375126	-0.0641448	1.40677	1.35964	0	0	-0.419544	-0.297708	0.247069	0.868611	0.309227	0	0
3.55	-2.27878	1.47507	1.1542	0.818779	0.360854	0.909236	0.202497	0.0844793	-0.310138	0.113576	0.0858093	0	0	0.145809	-0.232702	-0.00505388	1.07976	0.0174749	0	0	-0.176088	0.0863261	0.168343	0.201538	-0.370025	-0.0620443	1.41002	1.36183	0	0	-0.418267	-0.292944	0.25029	0.869827	0.310789	0	0
3.56	-2.2875	1.47989	1.15022	0.817747	0.35326	0.910004	0.190645	0.0879681	-0.30181	0.113653	0.0877648	0	0	0.164411	-0.22077	0.00705218	1.13747	0.0254867	0	0	-0.178013	0.0825275	0.169736	0.194783	-0.364442	-0.060275	1.41231	1.36484	0	0	-0.416299	-0.288228	0.252976	0.870062	0.311957	0	0
3.57	-2.30296	1.48415	1.15301	0.816755	0.345815	0.910691	0.179819	0.090727	-0.293205	0.114014	0.0892951	0	0	0.183958	-0.208712	0.0163086	1.19137	0.0289872	0	0	-0.178871	0.0784479	0.17087	0.188106	-0.359189	-0.0578396	1.41466	1.36731	0	0	-0.414083	-0.283358	0.253681	0.86895	0.312074	0	0
3.58	-2.32301	1.48855	1.16053	0.81575	0.338397	0.91138	0.168683	0.092809	-0.284127	0.113608	0.0918458	0	0	0.20299	-0.196673	0.0229542	1.24082	0.0305568	0	0	-0.179557	0.0737694	0.171435	0.181503	-0.353962	-0.0546715	1.41719	1.36894	0	0	-0.412507	-0.278697	0.251596	0.868279	0.311301	0	0
3.59	-2.35015	1.49233	1.17548	0.814857	0.33104	0.912009	0.158009	0.0943234	-0.2756	0.113019	0.0948792	0	0	0.222113	-0.184871	0.0275471	1.28604	0.0339067	0	0	-0.179036	0.069066	0.171608	0.174278	-0.349374	-0.0507878	1.42049	1.37027	0	0	-0.411356	-0.273432	0.246811	0.867462	0.310549	0	0
3.6	-2.42037	1.49431	1.2331	0.813922	0.323431	0.912711	0.149828	0.0933827	-0.267248	0.112529	0.0981285	0	0	0.242566	-0.170992	0.0296483	1.32523	0.0396383	0	0	-0.174487	0.0603944	0.172119	0.172803	-0.26215	-0.172212	1.40113	1.55312	0	0	-0.409916	-0.269268	0.241032	0.862242	0.304135	0	0
3.61	-2.42281	1.50094	1.22264	0.813351	0.316552	0.913478	0.135425	0.0949171	-0.258919	0.112278	0.10243	0	0	0.257527	-0.160933	0.0303649	1.36382	0.051457	0	0	-0.178213	0.059069	0.171986	0.160782	-0.340384	-0.042253	1.42513	1.37664	0	0	-0.407465	-0.262844	0.234546	0.859735	0.290129	0	0
3.62	-2.46818	1.50563	1.2552	0.812538	0.309397	0.91426	0.123692	0.094519	-0.251187	0.111873	0.106781	0	0	0.273931	-0.149815	0.0296538	1.39585	0.0561182	0	0	-0.178095	0.0534586	0.172484	0.153875	-0.334907	-0.0392451	1.42683	1.38047	0	0	-0.405747	-0.260083	0.232885	0.860635	0.298097	0	0
3.63	-2.51838	1.50981	1.29276	0.811716	0.302292	0.915012	0.112048	0.0940741	-0.243052	0.11066	0.110762	0	0	0.290971	-0.139281	0.0280778	1.42452	0.0607471	0	0	-0.177532	0.04818	0.172799	0.146554	-0.329869	-0.0353232	1.42911	1.38061	0	0	-0.403756	-0.257331	0.22961	0.860271	0.297165	0	0
3.64	-2.57837	1.51372	1.34066	0.811062	0.295319	0.915749	0.100107	0.0930074	-0.234477	0.108488	0.114489	0	0	0.308484	-0.129274	0.0254292	1.44992	0.0677136	0	0	-0.176689	0.0431053	0.172614	0.138635	-0.325609	-0.0309863	1.43212	1.38144	0	0	-0.401438	-0.254723	0.226726	0.859761	0.29634	0	0
3.65	-2.65033	1.51776	1.4007	0.810459	0.288411	0.916507	0.087573	0.0915112	-0.22563	0.105784	0.118082	0	0	0.325901	-0.119766	0.0215556	1.47136	0.0745225	0	0	-0.17594	0.0376498	0.172989	0.129669	-0.32159	-0.0275286	1.43603	1.38253	0	0	-0.399055	-0.252622	0.222416	0.860714	0.295369	0	0
3.66	-2.80954	1.51878	1.54207	0.809922	0.281998	0.917507	0.0803649	0.0850208	-0.208492	0.106134	0.120616	0	0	0.347207	-0.100801	0.00989342	1.49976	0.127971	0	0	-0.17312	0.0277175	0.180553	0.12331	-0.238699	-0.14915	1.42269	1.56189	0	0	-0.392475	-0.247716	0.215607	0.854303	0.288634	0	0
3.67	-2.85096	1.52454	1.57828	0.809241	0.274629	0.917961	0.0618155	0.0873908	-0.206874	0.0979253	0.124093	0	0	0.359476	-0.101882	0.0123676	1.50138	0.0834098	0	0	-0.173872	0.0251042	0.173496	0.110253	-0.313455	-0.0209759	1.44554	1.38728	0	0	-0.394402	-0.250014	0.212427	0.863207	0.316218	0	0
3.68	-2.9898	1.52727	1.70541	0.808745	0.267827	0.918703	0.0482761	0.0839602	-0.196858	0.0928358	0.127041	0	0	0.375635	-0.0928997	0.00628037	1.51014	0.0879388	0	0	-0.173131	0.0182063	0.173914	0.100522	-0.310464	-0.0163183	1.45114	1.38653	0	0	-0.391755	-0.249641	0.20997	0.864163	0.332432	0	0
3.69	3.13161	1.52919	1.85563	0.808387	0.261098	0.919446	0.0345072	0.0797142	-0.187205	0.087578	0.130749	0	0	0.391268	-0.0836791	6.94388e-05	1.51472	0.0916185	0	0	-0.172677	0.0112335	0.174213	0.0907681	-0.307559	-0.0119256	1.45694	1.38926	0	0	-0.388383	-0.249116	0.205066	0.862552	0.324379	0	0
3.7	2.9646	1.5298	2.01122	0.808088	0.254409	0.920104	0.0209999	0.0754375	-0.177569	0.0823422	0.13426	0	0	0.407022	-0.0752267	-0.00640818	1.5156	0.0939799	0	0	-0.171825	0.0044207	0.174649	0.080585	-0.305076	-0.00708463	1.46336	1.39177	0	0	-0.385005	-0.248312	0.198369	0.862021	0.317471	0	0
3.71	2.79653	1.52982	2.1677	0.807842	0.247823	0.920753	0.0068172	0.0711354	-0.166977	0.0764374	0.136581	0	0	0.421991	-0.0679239	-0.0134708	1.51256	0.0994958	0	0	-0.170272	-0.00308073	0.179354	0.0666809	-0.303167	-0.00725944	1.47023	1.40244	0	0	-0.383695	-0.276933	0.429861	0.854726	1.32216	0	0
3.72	2.6315	1.52842	2.32184	0.807686	0.241287	0.921351	-0.00696372	0.0660781	-0.157852	0.0707937	0.138712	0	0	0.436906	-0.060822	-0.0205664	1.50563	0.107287	0	0	-0.169868	-0.00958888	0.179178	0.0566644	-0.301694	-0.000405298	1.47711	1.39809	0	0	-0.379955	-0.278439	0.432539	0.855064	1.30637	0	0
3.73	2.50259	1.52256	2.43882	0.807344	0.234492	0.921908	-0.0181984	0.0589736	-0.147165	0.0636414	0.139767	0	0	0.452918	-0.0526243	-0.0295965	1.49295	0.113028	0	0	-0.166019	-0.0199467	0.181236	0.0441579	-0.2173	-0.115056	1.46753	1.56883	0	0	-0.376157	-0.278845	0.424614	0.851314	1.323	0	0
3.74	2.27229	1.52247	2.64187	0.806024	0.229164	0.92286	-0.0330206	0.0521516	-0.11879	0.0631356	0.141635	0	0	0.458263	-0.0532415	-0.0522489	1.47754	0.1229	0	0	-0.175568	-0.0261202	0.194682	0.0402279	-0.302591	0.0147028	1.49278	1.40824	0	0	-0.370573	-0.273736	0.415837	0.850012	1.3197	0	0
